<svg version="1.1" id="Calque_1" xmlns="http://www.w3.org/2000/svg" xmlns:xlink="http://www.w3.org/1999/xlink" x="0px" y="0px"
	 viewBox="0 0 50 50" enable-background="new 0 0 50 50" xml:space="preserve">
<g>
	<path fill="#1D939F" d="M282.2,45.4c-62.5-62.5-163.7-62.5-226.2,0l113.1,113.1L282.2,45.4z"/>
	<path fill="#3EB8C4" d="M282.2,45.4c-60.5-60.5-158.7-60.5-219.2,0L172.6,155L282.2,45.4z"/>
</g>
<g>
	<path fill="#188098" d="M289.1,278.5c62.4-62.4,62.4-163.5,0-225.9L176.2,165.6L289.1,278.5z"/>
	<path fill="#3CA4BD" d="M292.8,275.2c60.5-60.5,60.5-158.7,0-219.2L183.2,165.6L292.8,275.2z"/>
</g>
<g>
	<path fill="#188098" d="M48.9,52.5c-62.5,62.5-62.5,163.7,0,226.2L162,165.6L48.9,52.5z"/>
	<path fill="#3CA4BD" d="M52.4,56c-60.5,60.5-60.5,158.7,0,219.2L162,165.6L52.4,56z"/>
</g>
<g>
	<path fill="#176D74" d="M56,285.8c62.5,62.5,163.7,62.5,226.2,0L169.1,172.7L56,285.8z"/>
	<path fill="#3C8F98" d="M63,285.8c60.5,60.5,158.7,60.5,219.2,0L172.6,176.2L63,285.8z"/>
</g>
</svg>
